<?xml version="1.0" encoding="utf-8"?>
<!-- Generator: Adobe Illustrator 25.2.1, SVG Export Plug-In . SVG Version: 6.00 Build 0)  -->
<svg version="1.1" id="Capa_1" xmlns="http://www.w3.org/2000/svg" xmlns:xlink="http://www.w3.org/1999/xlink" x="0px" y="0px"
	 viewBox="0 0 1080 810" style="enable-background:new 0 0 1080 810;" xml:space="preserve">
<style type="text/css">
	.st0{clip-path:url(#SVGID_2_);fill:#00ADEF;}
</style>
<g>
	<g>
		<defs>
			<rect id="SVGID_1_" x="452.45" y="162.4" width="149.35" height="166.92"/>
		</defs>
		<clipPath id="SVGID_2_">
			<use xlink:href="#SVGID_1_"  style="overflow:visible;"/>
		</clipPath>
		<path class="st0" d="M552.15,262.21h-49.22c-0.22,0-0.43-0.06-0.62-0.17c-14.69-8.83-23.81-24.95-23.81-42.07
			c0-27.04,21.99-49.03,49.03-49.03c27.04,0,49.03,22,49.03,49.03c0,17.38-8.9,33.11-23.8,42.07
			C552.58,262.16,552.37,262.21,552.15,262.21z M503.26,259.82h48.55c14.01-8.55,22.36-23.42,22.36-39.85
			c0-25.72-20.92-46.64-46.64-46.64c-25.72,0-46.64,20.92-46.64,46.64C480.89,236.39,489.25,251.27,503.26,259.82z"/>
		<path class="st0" d="M545.98,303.68h-36.87c-0.66,0-1.2-0.53-1.2-1.19v-41.46c0-0.66,0.53-1.2,1.2-1.2h36.87
			c0.66,0,1.2,0.53,1.2,1.2v41.46C547.17,303.14,546.64,303.68,545.98,303.68z M510.3,301.29h34.48v-39.07H510.3V301.29z"/>
		<path class="st0" d="M562.32,262.21h-69.56c-0.66,0-1.19-0.53-1.19-1.19c0-0.66,0.53-1.2,1.19-1.2h69.56
			c0.66,0,1.19,0.53,1.19,1.2C563.52,261.68,562.98,262.21,562.32,262.21z"/>
		<path class="st0" d="M553.1,277.34h-51.13c-0.66,0-1.19-0.53-1.19-1.2c0-0.66,0.53-1.19,1.19-1.19h51.13
			c0.66,0,1.19,0.53,1.19,1.19C554.29,276.8,553.76,277.34,553.1,277.34z"/>
		<path class="st0" d="M553.1,288.97h-51.13c-0.66,0-1.19-0.53-1.19-1.19c0-0.66,0.53-1.2,1.19-1.2h51.13c0.66,0,1.19,0.53,1.19,1.2
			C554.29,288.43,553.76,288.97,553.1,288.97z"/>
		<path class="st0" d="M527.53,316.3c-6.22,0-11.28-5.07-11.28-11.3c0-0.96,0.12-1.91,0.36-2.82c0.14-0.52,0.61-0.89,1.16-0.89
			h19.54c0.54,0,1.02,0.37,1.16,0.89c0.24,0.9,0.36,1.85,0.36,2.82C538.82,311.23,533.76,316.3,527.53,316.3z M518.74,303.68
			c-0.06,0.44-0.1,0.88-0.1,1.32c0,4.91,3.99,8.91,8.89,8.91s8.9-4,8.9-8.91c0-0.45-0.03-0.89-0.1-1.32H518.74z"/>
		<path class="st0" d="M520.97,252c-0.1,0-0.2-0.01-0.31-0.04l-4.86-1.3c-0.57-0.15-0.94-0.7-0.88-1.29l1-8.9
			c-1.21-0.58-2.36-1.25-3.44-1.99l-7.2,5.33c-0.47,0.35-1.13,0.3-1.56-0.12l-3.56-3.58c-0.42-0.42-0.47-1.08-0.11-1.55l5.32-7.2
			c-0.74-1.09-1.4-2.24-1.98-3.43l-8.9,1.02c-0.59,0.06-1.14-0.31-1.29-0.88l-1.31-4.88c-0.15-0.57,0.14-1.17,0.68-1.4l8.21-3.57
			c-0.09-1.31-0.09-2.64,0-3.97l-8.21-3.57c-0.54-0.23-0.83-0.83-0.68-1.4l1.13-4.22c0.15-0.57,0.69-0.95,1.29-0.88l8.89,1.02
			c0.58-1.2,1.24-2.36,1.98-3.45l-5.32-7.2c-0.35-0.48-0.3-1.14,0.12-1.55l3.56-3.56c0.42-0.42,1.08-0.47,1.56-0.11l7.2,5.33
			c1.08-0.74,2.23-1.41,3.43-1.99l-1.01-8.89c-0.07-0.59,0.31-1.13,0.88-1.29l4.87-1.31c0.57-0.15,1.17,0.13,1.41,0.68l3.57,8.21
			c1.31-0.1,2.64-0.1,3.97,0l3.57-8.21c0.24-0.54,0.84-0.83,1.4-0.68l4.87,1.31c0.57,0.15,0.94,0.7,0.88,1.29l-1.01,8.89
			c1.2,0.58,2.35,1.24,3.44,1.98l7.2-5.32c0.48-0.35,1.14-0.3,1.55,0.12l3.56,3.56c0.42,0.42,0.47,1.08,0.11,1.55l-5.32,7.2
			c0.76,1.11,1.42,2.27,1.99,3.45l8.9-1.02c0.58-0.07,1.14,0.31,1.29,0.88l1.3,4.88c0.15,0.57-0.14,1.17-0.68,1.4l-8.2,3.56
			c0.09,1.34,0.09,2.66,0,3.96l8.2,3.58c0.54,0.24,0.83,0.83,0.68,1.4l-1.12,4.22c-0.15,0.57-0.71,0.95-1.29,0.88l-8.9-1.02
			c-0.57,1.19-1.24,2.34-1.98,3.45l5.32,7.18c0.35,0.47,0.3,1.13-0.11,1.55l-3.56,3.58c-0.42,0.42-1.09,0.47-1.56,0.12l-7.2-5.33
			c-1.09,0.74-2.24,1.41-3.44,1.99l1,8.9c0.07,0.59-0.31,1.14-0.88,1.29l-4.87,1.3c-0.57,0.15-1.16-0.14-1.4-0.68l-3.58-8.2
			c-1.36,0.1-2.68,0.1-3.97,0.01l-3.57,8.2C521.87,251.73,521.44,252,520.97,252z M530.36,240.63c0.47,0,0.9,0.28,1.09,0.72
			l3.51,8.05l2.88-0.77l-0.98-8.73c-0.06-0.52,0.22-1.01,0.7-1.23c1.6-0.71,3.12-1.6,4.52-2.62c0.42-0.31,1-0.31,1.41,0.01
			l7.06,5.23l2.11-2.12l-5.22-7.05c-0.31-0.42-0.31-0.99-0.01-1.41c1.03-1.43,1.91-2.95,2.61-4.53c0.21-0.48,0.69-0.76,1.23-0.7
			l8.73,1l0.59-2.23l-8.05-3.52c-0.48-0.21-0.77-0.71-0.71-1.22c0.19-1.69,0.19-3.45,0.01-5.21c-0.05-0.52,0.24-1.01,0.71-1.21
			l8.04-3.5l-0.77-2.89l-8.73,1c-0.53,0.06-1.02-0.23-1.23-0.71c-0.68-1.56-1.55-3.08-2.6-4.52c-0.31-0.42-0.31-0.99,0.01-1.41
			l5.22-7.06l-2.1-2.11l-7.07,5.22c-0.42,0.31-0.99,0.31-1.41,0c-1.39-1.02-2.91-1.89-4.51-2.59c-0.48-0.21-0.76-0.71-0.71-1.23
			l0.99-8.73l-2.88-0.78l-3.51,8.06c-0.21,0.48-0.71,0.75-1.22,0.71c-1.75-0.19-3.51-0.19-5.21,0c-0.54,0.06-1.02-0.23-1.23-0.71
			l-3.5-8.06l-2.88,0.78l0.99,8.73c0.06,0.52-0.23,1.02-0.71,1.23c-1.61,0.7-3.12,1.58-4.5,2.6c-0.42,0.32-1,0.31-1.42,0l-7.07-5.23
			l-2.11,2.11l5.22,7.06c0.31,0.42,0.31,0.99,0.01,1.41c-1.01,1.39-1.89,2.92-2.61,4.53c-0.21,0.48-0.69,0.76-1.23,0.7l-8.72-1
			l-0.6,2.23l8.05,3.5c0.48,0.21,0.76,0.7,0.71,1.21c-0.18,1.76-0.18,3.52,0,5.23c0.05,0.52-0.23,1.01-0.71,1.22l-8.05,3.5
			l0.77,2.89l8.73-1c0.54-0.06,1.02,0.23,1.23,0.7c0.71,1.6,1.58,3.11,2.6,4.51c0.31,0.42,0.31,0.99-0.01,1.41l-5.23,7.07l2.11,2.12
			l7.07-5.23c0.43-0.32,1-0.31,1.42,0c1.37,1.02,2.88,1.9,4.5,2.61c0.48,0.21,0.76,0.71,0.71,1.23l-0.98,8.73l2.88,0.77l3.51-8.05
			c0.21-0.48,0.69-0.75,1.23-0.71c1.65,0.18,3.41,0.18,5.22,0L530.36,240.63z"/>
		<path class="st0" d="M527.53,235.24c-10.29,0-18.66-8.37-18.66-18.66c0-10.29,8.37-18.65,18.66-18.65
			c10.29,0,18.67,8.37,18.67,18.65C546.2,226.86,537.83,235.24,527.53,235.24z M527.53,200.31c-8.97,0-16.27,7.3-16.27,16.26
			c0,8.97,7.3,16.27,16.27,16.27c8.98,0,16.28-7.3,16.28-16.27C543.81,207.61,536.51,200.31,527.53,200.31z"/>
		<path class="st0" d="M527.53,235.24c-5.68,0-10.13-8.2-10.13-18.66c0-10.46,4.45-18.65,10.13-18.65c5.69,0,10.14,8.19,10.14,18.65
			C537.67,227.04,533.22,235.24,527.53,235.24z M527.53,200.31c-4.2,0-7.74,7.45-7.74,16.26c0,8.82,3.55,16.27,7.74,16.27
			c4.2,0,7.75-7.45,7.75-16.27C535.28,207.76,531.73,200.31,527.53,200.31z"/>
		<path class="st0" d="M545,217.77h-34.93c-0.66,0-1.19-0.53-1.19-1.19s0.53-1.2,1.19-1.2H545c0.66,0,1.19,0.54,1.19,1.2
			S545.67,217.77,545,217.77z"/>
		<path class="st0" d="M527.53,235.24c-0.66,0-1.19-0.54-1.19-1.2v-34.92c0-0.66,0.53-1.2,1.19-1.2s1.2,0.53,1.2,1.2v34.92
			C528.73,234.7,528.19,235.24,527.53,235.24z"/>
		<path class="st0" d="M527.58,209.91c-4.86,0-9.73-0.82-14.58-2.45c-0.62-0.21-0.96-0.89-0.75-1.51c0.21-0.62,0.88-0.96,1.51-0.75
			c9.19,3.1,18.46,3.1,27.54,0c0.62-0.21,1.3,0.12,1.52,0.74c0.21,0.62-0.12,1.3-0.74,1.52
			C537.28,209.09,532.43,209.91,527.58,209.91z"/>
		<path class="st0" d="M513.38,227.64c-0.5,0-0.97-0.32-1.13-0.81c-0.21-0.63,0.13-1.3,0.75-1.51c9.69-3.25,19.48-3.25,29.07,0
			c0.63,0.21,0.96,0.89,0.75,1.51c-0.21,0.62-0.89,0.96-1.51,0.75c-9.09-3.08-18.36-3.08-27.55,0
			C513.63,227.62,513.51,227.64,513.38,227.64z"/>
	</g>
</g>
</svg>
