<svg id="Capa_1" data-name="Capa 1" xmlns="http://www.w3.org/2000/svg" xmlns:xlink="http://www.w3.org/1999/xlink" viewBox="0 0 911.66 712.09"><defs><style>.cls-1,.cls-6{fill:none;}.cls-2{clip-path:url(#clip-path);}.cls-3{fill:#00adef;}.cls-4,.cls-5{fill:#4c4c4c;}.cls-4{opacity:0.75;}.cls-6{stroke:#00adef;stroke-miterlimit:10;}.cls-7{fill:#fff;}.cls-8{fill:#00aeef;}.cls-8,.cls-9{fill-rule:evenodd;}.cls-10,.cls-9{fill:#9ea09d;}</style><clipPath id="clip-path" transform="translate(-29.86 -51.56)"><rect class="cls-1" x="231.71" y="36.29" width="212.66" height="189"/></clipPath></defs><g class="cls-2"><path class="cls-3" d="M122.7,151.37H73.48a1.22,1.22,0,0,1-.61-.17,49,49,0,1,1,74.25-42.07,48.71,48.71,0,0,1-23.8,42.07A1.23,1.23,0,0,1,122.7,151.37ZM73.82,149h48.55a46.65,46.65,0,1,0-48.55,0Z" transform="translate(-29.86 -51.56)"/><path class="cls-3" d="M116.53,192.83H79.66a1.19,1.19,0,0,1-1.19-1.19V150.18a1.19,1.19,0,0,1,1.19-1.2h36.87a1.2,1.2,0,0,1,1.2,1.2v41.46A1.19,1.19,0,0,1,116.53,192.83Zm-35.67-2.39h34.48V151.37H80.86Z" transform="translate(-29.86 -51.56)"/><path class="cls-3" d="M132.88,151.37H63.31a1.2,1.2,0,0,1,0-2.39h69.57a1.2,1.2,0,0,1,0,2.39Z" transform="translate(-29.86 -51.56)"/><path class="cls-3" d="M123.65,166.49H72.53a1.2,1.2,0,1,1,0-2.39h51.12a1.2,1.2,0,1,1,0,2.39Z" transform="translate(-29.86 -51.56)"/><path class="cls-3" d="M123.65,178.13H72.53a1.2,1.2,0,1,1,0-2.39h51.12a1.2,1.2,0,1,1,0,2.39Z" transform="translate(-29.86 -51.56)"/><path class="cls-3" d="M98.09,205.46a11.31,11.31,0,0,1-11.29-11.3,11.53,11.53,0,0,1,.36-2.82,1.21,1.21,0,0,1,1.16-.9h19.54a1.2,1.2,0,0,1,1.16.9,11.33,11.33,0,0,1-10.93,14.12Zm-8.8-12.63a9.92,9.92,0,0,0-.1,1.33,8.9,8.9,0,1,0,17.79,0,9.8,9.8,0,0,0-.09-1.33Z" transform="translate(-29.86 -51.56)"/><path class="cls-3" d="M91.52,141.16a1,1,0,0,1-.3,0l-4.86-1.3a1.18,1.18,0,0,1-.88-1.28l1-8.9a25.9,25.9,0,0,1-3.44-2L75.84,133a1.19,1.19,0,0,1-1.55-.12l-3.57-3.58a1.19,1.19,0,0,1-.11-1.55l5.32-7.2a27.76,27.76,0,0,1-2-3.43l-8.89,1a1.2,1.2,0,0,1-1.29-.88l-1.31-4.88a1.2,1.2,0,0,1,.68-1.4l8.2-3.57a29.22,29.22,0,0,1,0-4l-8.2-3.57a1.18,1.18,0,0,1-.68-1.4l1.13-4.22a1.19,1.19,0,0,1,1.29-.88l8.89,1a28.57,28.57,0,0,1,2-3.45l-5.32-7.2a1.19,1.19,0,0,1,.12-1.55l3.56-3.56a1.2,1.2,0,0,1,1.56-.12l7.2,5.33a25.33,25.33,0,0,1,3.43-2l-1-8.89a1.18,1.18,0,0,1,.87-1.29L91,70.34a1.19,1.19,0,0,1,1.41.67L96,79.22a26.3,26.3,0,0,1,4,0L103.56,71a1.21,1.21,0,0,1,1.41-.67l4.86,1.31a1.19,1.19,0,0,1,.88,1.29l-1,8.89a27.17,27.17,0,0,1,3.44,2l7.2-5.32a1.2,1.2,0,0,1,1.56.12l3.56,3.56a1.2,1.2,0,0,1,.11,1.55l-5.32,7.2a26,26,0,0,1,2,3.45l8.9-1a1.2,1.2,0,0,1,1.29.88l1.3,4.88a1.19,1.19,0,0,1-.68,1.4l-8.2,3.57a26.17,26.17,0,0,1,0,4l8.2,3.58a1.2,1.2,0,0,1,.68,1.4l-1.12,4.22a1.2,1.2,0,0,1-1.29.88l-8.9-1a27,27,0,0,1-2,3.45l5.31,7.18a1.18,1.18,0,0,1-.11,1.55l-3.56,3.58a1.2,1.2,0,0,1-1.56.12l-7.19-5.33a28.64,28.64,0,0,1-3.44,2l1,8.9a1.18,1.18,0,0,1-.88,1.29l-4.86,1.3a1.19,1.19,0,0,1-1.4-.68l-3.58-8.2a27.71,27.71,0,0,1-4,0l-3.57,8.19A1.19,1.19,0,0,1,91.52,141.16Zm9.39-11.38a1.2,1.2,0,0,1,1.1.72l3.5,8.05,2.88-.77-1-8.73a1.2,1.2,0,0,1,.7-1.23,24.71,24.71,0,0,0,4.52-2.61,1.2,1.2,0,0,1,1.42,0l7.06,5.24,2.1-2.12L118,121.28a1.19,1.19,0,0,1,0-1.41,25.67,25.67,0,0,0,2.61-4.53,1.18,1.18,0,0,1,1.23-.71l8.72,1,.6-2.23-8.06-3.52a1.2,1.2,0,0,1-.71-1.22,24.6,24.6,0,0,0,0-5.22,1.2,1.2,0,0,1,.71-1.21l8.05-3.5-.77-2.89-8.74,1a1.19,1.19,0,0,1-1.23-.71,23.88,23.88,0,0,0-2.6-4.52,1.17,1.17,0,0,1,0-1.41L123,83.13,120.93,81l-7.06,5.22a1.2,1.2,0,0,1-1.42,0,24.22,24.22,0,0,0-4.51-2.59,1.2,1.2,0,0,1-.71-1.23l1-8.73-2.88-.78L101.83,81a1.2,1.2,0,0,1-1.22.71,23.88,23.88,0,0,0-5.21,0A1.18,1.18,0,0,1,94.17,81l-3.5-8.06-2.88.78,1,8.73a1.19,1.19,0,0,1-.7,1.23,23,23,0,0,0-4.5,2.6,1.17,1.17,0,0,1-1.42,0L75.08,81,73,83.13l5.21,7.07a1.2,1.2,0,0,1,0,1.41,25,25,0,0,0-2.61,4.53,1.17,1.17,0,0,1-1.22.7l-8.73-1L65,98.07l8,3.5a1.2,1.2,0,0,1,.72,1.22,25.39,25.39,0,0,0,0,5.23,1.2,1.2,0,0,1-.72,1.22l-8,3.5.78,2.89,8.73-1a1.19,1.19,0,0,1,1.23.7,24.1,24.1,0,0,0,2.6,4.52,1.19,1.19,0,0,1,0,1.41l-5.22,7.07,2.11,2.12,7.07-5.24a1.2,1.2,0,0,1,1.42,0,23,23,0,0,0,4.5,2.61,1.2,1.2,0,0,1,.71,1.23l-1,8.73,2.88.77,3.51-8.05a1.2,1.2,0,0,1,1.22-.71,25.29,25.29,0,0,0,5.22,0Z" transform="translate(-29.86 -51.56)"/><path class="cls-3" d="M98.09,124.39a18.66,18.66,0,1,1,18.66-18.66A18.68,18.68,0,0,1,98.09,124.39Zm0-34.92a16.27,16.27,0,1,0,16.27,16.26A16.29,16.29,0,0,0,98.09,89.47Z" transform="translate(-29.86 -51.56)"/><path class="cls-3" d="M98.09,124.39c-5.68,0-10.13-8.19-10.13-18.66s4.45-18.65,10.13-18.65,10.14,8.19,10.14,18.65S103.77,124.39,98.09,124.39Zm0-34.92c-4.2,0-7.74,7.45-7.74,16.26S93.89,122,98.09,122s7.75-7.45,7.75-16.27S102.29,89.47,98.09,89.47Z" transform="translate(-29.86 -51.56)"/><path class="cls-3" d="M115.56,106.93H80.63a1.2,1.2,0,1,1,0-2.39h34.93a1.2,1.2,0,0,1,0,2.39Z" transform="translate(-29.86 -51.56)"/><path class="cls-3" d="M98.09,124.39a1.19,1.19,0,0,1-1.2-1.19V88.28a1.2,1.2,0,1,1,2.39,0V123.2A1.19,1.19,0,0,1,98.09,124.39Z" transform="translate(-29.86 -51.56)"/><path class="cls-3" d="M98.13,99.07a45.57,45.57,0,0,1-14.58-2.45,1.2,1.2,0,1,1,.77-2.27,42,42,0,0,0,27.54,0,1.19,1.19,0,1,1,.77,2.26A44.87,44.87,0,0,1,98.13,99.07Z" transform="translate(-29.86 -51.56)"/><path class="cls-3" d="M83.93,116.79a1.19,1.19,0,0,1-.38-2.32,44.58,44.58,0,0,1,29.08,0,1.19,1.19,0,1,1-.77,2.26,42.2,42.2,0,0,0-27.54,0A1.32,1.32,0,0,1,83.93,116.79Z" transform="translate(-29.86 -51.56)"/><path class="cls-3" d="M372.24,209.84a4.27,4.27,0,0,1-1.83-.5c-4.19-2.07-8.14-6-12.33-10.15-3.68-3.66-7.49-7.44-11.42-9.8l-1.56-.9c-2.24-1.25-4.36-2.43-5.11-4.56a4.2,4.2,0,0,1-.24-1.51c0-2.59,1.55-6.94,2.58-9.82l.52-1.47h0c.51-1.49,1.57-4.59,6.67-4.73,5.91-.11,23.11,4.52,28.42,6.66,3.26,1.31,5.1,2.79,5.79,4.68.82,2.14-.94,7.64-5.48,20-1.34,3.62-2.49,6.75-2.91,8.34s-.77,3-2,3.57A2.38,2.38,0,0,1,372.24,209.84Zm0-2.9h0ZM345.6,172.06c-.14.42-.33.94-.54,1.52-.9,2.52-2.41,6.75-2.41,8.84a1.67,1.67,0,0,0,.06.51c.4,1.13,2,2,3.8,3,.54.3,1.09.61,1.64.94,4.23,2.54,8.17,6.45,12,10.23,4,4,7.8,7.75,11.56,9.61l.36.15a11.24,11.24,0,0,0,.48-1.59c.46-1.73,1.64-4.92,3-8.6,2.08-5.65,6-16.16,5.49-18-.38-1-1.77-2-4.15-3-5.59-2.25-22.21-6.57-27.28-6.45-3.07.08-3.53,1.44-4,2.76Zm23.3,16.55a4.26,4.26,0,0,1-2.73-1,4.39,4.39,0,0,1-.71-6.14h0a4.4,4.4,0,0,1,6.16-.72,4.31,4.31,0,0,1,1.64,2.94,4.4,4.4,0,0,1-.95,3.26,4.32,4.32,0,0,1-2.93,1.62Zm-1.17-5.3a1.41,1.41,0,0,0-.3,1.07,1.49,1.49,0,0,0,1.64,1.32,1.41,1.41,0,0,0,1-.54,1.5,1.5,0,0,0,.34-1.12,1.46,1.46,0,0,0-.55-1A1.51,1.51,0,0,0,367.73,183.31Z" transform="translate(-29.86 -51.56)"/><path class="cls-3" d="M300.7,209.84a2.39,2.39,0,0,1-1-.22c-1.26-.57-1.61-1.89-2.06-3.57v0c-.42-1.62-1.6-4.82-3-8.53-4.49-12.19-6.24-17.63-5.43-19.77.75-1.91,2.59-3.38,5.8-4.67,5.32-2.14,22.53-6.71,28.41-6.66,5.07.14,6.15,3.23,6.68,4.71.15.47.35,1,.57,1.66,1.06,3,2.51,7.13,2.51,9.67a4.61,4.61,0,0,1-.21,1.49c-.73,2.11-2.83,3.29-5.06,4.53-.53.3-1.07.6-1.61.93-3.94,2.36-7.75,6.14-11.44,9.8-4.18,4.16-8.13,8.08-12.32,10.15A4.31,4.31,0,0,1,300.7,209.84Zm-.29-4.55h0a12.83,12.83,0,0,0,.49,1.59l.34-.15c3.77-1.86,7.56-5.62,11.57-9.61,3.81-3.78,7.74-7.69,12-10.23.56-.34,1.14-.66,1.69-1,1.73-1,3.37-1.88,3.74-3a2,2,0,0,0,0-.53c0-2-1.47-6.21-2.34-8.71-.23-.65-.44-1.23-.59-1.68-.48-1.36-.94-2.67-4-2.75-4.89,0-21.67,4.2-27.25,6.45-2.36.95-3.77,2-4.19,3-.43,1.75,3.4,12.14,5.45,17.73C298.75,200.27,300,203.54,300.41,205.29ZM304,188.61A4.43,4.43,0,0,1,300.6,187a4.38,4.38,0,0,1-.92-3.25,4.34,4.34,0,0,1,1.63-2.94,4.39,4.39,0,0,1,6.15.72h0a4.38,4.38,0,0,1,.93,3.27,4.39,4.39,0,0,1-4.35,3.84Zm0-5.87a1.47,1.47,0,0,0-.92.32,1.51,1.51,0,0,0-.23,2.1,1.48,1.48,0,0,0,2.09.22,1.44,1.44,0,0,0,.55-1,1.52,1.52,0,0,0-.32-1.12h0A1.5,1.5,0,0,0,304,182.74Z" transform="translate(-29.86 -51.56)"/><path class="cls-3" d="M377.4,175.86a1.49,1.49,0,0,1-.54-.11c-5.59-2.25-22.21-6.57-27.28-6.45a1.51,1.51,0,0,1-1.16-.56,1.45,1.45,0,0,1-.26-1.27c1.27-4.72,5.13-19.07,9.63-25.8h0c3.94-5.89,17.61-17.66,28.43-21.88,5.52-2.15,9.77-2.17,12.65-.08l.26.2c1.65-8.07,6.31-19.08,10.73-24.91,1.42-1.9,4.33-5.15,7.85-5.53A6,6,0,0,1,422.44,91c4.33,3.74,1.56,18.25-.47,26.56-2.49,10.14-7,23.17-11,27.82-4.95,5.76-9.69,8.2-14.28,10.56-6.65,3.42-12.39,6.37-17.94,19A1.46,1.46,0,0,1,377.4,175.86Zm-26-9.38c6.5.6,19.44,4,25.21,6.09,5.8-12.54,12.08-15.76,18.71-19.17,4.34-2.23,8.82-4.54,13.41-9.87,3.13-3.62,7.5-14.82,10.39-26.62,3.46-14.11,3.14-22.17,1.39-23.68a3.21,3.21,0,0,0-2.52-.88c-1.75.19-3.93,1.83-5.85,4.39-4.71,6.22-9.9,19.2-10.67,26.71a1.46,1.46,0,0,1-2.81.39,4.24,4.24,0,0,0-1.53-1.78c-2.52-1.84-6.77-.78-9.89.44-10.15,4-23.42,15.33-27.07,20.78C356.41,149,353,160.77,351.43,166.48Z" transform="translate(-29.86 -51.56)"/><path class="cls-3" d="M295.54,175.86a1.45,1.45,0,0,1-1.32-.87c-5.56-12.64-11.31-15.59-18-19-4.59-2.36-9.33-4.8-14.29-10.56-6.6-7.65-18.79-48-11.46-54.39a6,6,0,0,1,4.72-1.56c3.52.38,6.44,3.63,7.86,5.54,4.39,5.78,9.06,16.79,10.74,24.88l.24-.18c3.92-2.84,10.57-1.69,19.24,3.33,9.17,5.34,18.69,13.94,21.82,18.62,3.92,5.84,7.22,16.86,9.65,25.81a1.45,1.45,0,0,1-.25,1.27,1.56,1.56,0,0,1-1.17.56c-4.88-.05-21.69,4.2-27.27,6.45A1.54,1.54,0,0,1,295.54,175.86Zm-41-83.52a3.23,3.23,0,0,0-2.17.89c-5,4.36,5,42.51,11.75,50.3,4.6,5.33,9.08,7.64,13.43,9.87,6.63,3.41,12.9,6.63,18.72,19.17,5.76-2.06,18.69-5.49,25.2-6.08-1.66-6-5-17.63-8.79-23.21-2.89-4.32-12.18-12.67-20.87-17.73-7.49-4.34-13.2-5.58-16.08-3.49a4.13,4.13,0,0,0-1.51,1.74,1.45,1.45,0,0,1-2.79-.37c-.82-7.55-6-20.52-10.69-26.68-1.92-2.57-4.11-4.21-5.86-4.4Z" transform="translate(-29.86 -51.56)"/><path class="cls-3" d="M380.65,108.33h-12.9a1.45,1.45,0,0,1-1.45-1.45,14.37,14.37,0,0,1,14.35-14.35A1.45,1.45,0,0,1,382.1,94v12.9A1.45,1.45,0,0,1,380.65,108.33Zm-11.36-2.9h9.91V95.52A11.48,11.48,0,0,0,369.29,105.43Z" transform="translate(-29.86 -51.56)"/><path class="cls-3" d="M380.65,71.51A14.36,14.36,0,0,1,366.3,57.17a1.45,1.45,0,0,1,1.45-1.45h12.9a1.45,1.45,0,0,1,1.45,1.45V70.06A1.45,1.45,0,0,1,380.65,71.51ZM369.29,58.62a11.47,11.47,0,0,0,9.91,9.9v-9.9Z" transform="translate(-29.86 -51.56)"/><path class="cls-3" d="M337.32,88.83a1.43,1.43,0,0,1-.9-.31,1.46,1.46,0,0,1-.55-1.14V83.07a1.47,1.47,0,0,1,.58-1.16,1.45,1.45,0,0,1,1.27-.23A4,4,0,0,1,339.91,83a3.41,3.41,0,0,1,.73,2.15,3.45,3.45,0,0,1-.88,2.37,3.83,3.83,0,0,1-2.1,1.27A2,2,0,0,1,337.32,88.83Z" transform="translate(-29.86 -51.56)"/><path class="cls-3" d="M335.73,80.92a1.44,1.44,0,0,1-.54-.1,3.6,3.6,0,0,1-1.73-1.37,3.17,3.17,0,0,1-.57-1.85,3.52,3.52,0,0,1,.62-2,3.62,3.62,0,0,1,1.76-1.32,1.46,1.46,0,0,1,1.31.2,1.44,1.44,0,0,1,.6,1.18v3.8a1.43,1.43,0,0,1-1.45,1.45Z" transform="translate(-29.86 -51.56)"/><path class="cls-3" d="M337.32,83.07v4.31a2.39,2.39,0,0,0,1.35-.8,2,2,0,0,0,.52-1.42,2,2,0,0,0-.43-1.26A2.66,2.66,0,0,0,337.32,83.07Zm-2.61-6.65a2.09,2.09,0,0,0-.37,1.18,1.8,1.8,0,0,0,.35,1.07,2.06,2.06,0,0,0,1,.8v-3.8A2.09,2.09,0,0,0,334.71,76.42ZM334,84.77a3.68,3.68,0,0,0,.67,1.5,3.11,3.11,0,0,0,1.07.94v-4.6a6,6,0,0,1-3.14-1.87,4.77,4.77,0,0,1-1-3,4.24,4.24,0,0,1,1.15-3,4.49,4.49,0,0,1,3-1.42V72.2h1.59v1.09a4.72,4.72,0,0,1,2.81,1.2,4.41,4.41,0,0,1,1.31,2.63l-2.79.35a2.2,2.2,0,0,0-1.33-1.74V80a6.94,6.94,0,0,1,3.62,1.83,4.44,4.44,0,0,1,1,2.92,4.89,4.89,0,0,1-1.2,3.35,5.62,5.62,0,0,1-3.38,1.7v2.05h-1.59v-2a5.29,5.29,0,0,1-3.09-1.41,5.74,5.74,0,0,1-1.5-3.34Z" transform="translate(-29.86 -51.56)"/><path class="cls-3" d="M336.52,98.24A16.21,16.21,0,1,1,352.73,82,16.22,16.22,0,0,1,336.52,98.24Zm0-29.51A13.31,13.31,0,1,0,349.83,82,13.3,13.3,0,0,0,336.52,68.73Zm.8,24.59h-1.59a1.45,1.45,0,0,1-1.45-1.45V91a6.4,6.4,0,0,1-2.65-1.54,7.26,7.26,0,0,1-1.93-4.16,1.49,1.49,0,0,1,.29-1.1,1.47,1.47,0,0,1,1-.56l2.66-.3a6.1,6.1,0,0,1-3.51-5.64,5.8,5.8,0,0,1,4.17-5.62,1.44,1.44,0,0,1,1.44-1.34h1.59a1.45,1.45,0,0,1,1.45,1.35,5.8,5.8,0,0,1,2.36,1.33,5.93,5.93,0,0,1,1.74,3.45A1.47,1.47,0,0,1,342.6,78a1.42,1.42,0,0,1-1,.57l-2.79.35h-.06v0a7,7,0,0,1,3.29,2,5.86,5.86,0,0,1,1.29,3.84,6.36,6.36,0,0,1-1.56,4.31,6.85,6.85,0,0,1-3,1.89v.9A1.45,1.45,0,0,1,337.32,93.32Zm-1-4.79a.56.56,0,0,1,.17.09,1.64,1.64,0,0,1,.58-.23,4.24,4.24,0,0,0,2.55-1.25,3.49,3.49,0,0,0,.81-2.37,3,3,0,0,0-.63-2A5.36,5.36,0,0,0,337,81.43a1.46,1.46,0,0,1-1.1-1.41V75.73a1.44,1.44,0,0,1,.66-1.21h0a1.41,1.41,0,0,1-.67.23,3,3,0,0,0-2.07,1,2.8,2.8,0,0,0-.77,2,3.34,3.34,0,0,0,.71,2.13,4.56,4.56,0,0,0,2.41,1.38,1.44,1.44,0,0,1,1,1.39v4.6a1.45,1.45,0,0,1-.68,1.23ZM333,86.34a3.24,3.24,0,0,0,.69,1.06l.22.2a5.54,5.54,0,0,1-.37-.45,4.4,4.4,0,0,1-.5-.81Z" transform="translate(-29.86 -51.56)"/><path class="cls-3" d="M292.38,71.51a1.45,1.45,0,0,1-1.45-1.45V57.17a1.45,1.45,0,0,1,1.45-1.45h12.9a1.45,1.45,0,0,1,1.45,1.45A14.35,14.35,0,0,1,292.38,71.51Zm1.45-12.89v9.9a11.46,11.46,0,0,0,9.91-9.9Z" transform="translate(-29.86 -51.56)"/><path class="cls-3" d="M367.75,108.33H305.28a1.45,1.45,0,0,1-1.45-1.45,11.46,11.46,0,0,0-11.45-11.45A1.45,1.45,0,0,1,290.93,94V70.06a1.45,1.45,0,0,1,1.45-1.45,11.45,11.45,0,0,0,11.45-11.44,1.45,1.45,0,0,1,1.45-1.45h62.47a1.45,1.45,0,0,1,1.45,1.45,11.46,11.46,0,0,0,11.45,11.44,1.45,1.45,0,0,1,1.45,1.45V94a1.45,1.45,0,0,1-1.45,1.45,11.47,11.47,0,0,0-11.45,11.45A1.45,1.45,0,0,1,367.75,108.33Zm-61.09-2.9h59.72A14.36,14.36,0,0,1,379.2,92.6V71.44a14.36,14.36,0,0,1-12.82-12.82H306.66a14.37,14.37,0,0,1-12.83,12.82V92.6A14.37,14.37,0,0,1,306.66,105.43Zm29.86-7.19A16.21,16.21,0,1,1,352.73,82,16.22,16.22,0,0,1,336.52,98.24Zm0-29.51A13.31,13.31,0,1,0,349.83,82,13.3,13.3,0,0,0,336.52,68.73Z" transform="translate(-29.86 -51.56)"/><path class="cls-3" d="M305.28,108.33h-12.7a1.64,1.64,0,0,1-1.65-1.45V94a1.45,1.45,0,0,1,1.45-1.45,14.36,14.36,0,0,1,14.35,14.35A1.45,1.45,0,0,1,305.28,108.33Zm-11.45-2.9h9.91a11.47,11.47,0,0,0-9.91-9.91Z" transform="translate(-29.86 -51.56)"/><path class="cls-3" d="M349.56,169.3a1.73,1.73,0,0,1-.38-.05,1.45,1.45,0,0,1-1-1.78c1.27-4.72,5.13-19.07,9.63-25.8,3.94-5.89,17.61-17.66,28.43-21.88,5.52-2.15,9.77-2.17,12.65-.08a7,7,0,0,1,2.51,3.06c2.86,7-9.54,15.13-19.11,20.64l-.85.49a1.45,1.45,0,0,1-1.46-2.51l.87-.5c17.48-10.06,18.69-15,17.86-17a4.2,4.2,0,0,0-1.53-1.79c-2.52-1.84-6.77-.78-9.89.44-10.15,4-23.42,15.33-27.07,20.78-4.23,6.33-8,20.34-9.24,24.94A1.45,1.45,0,0,1,349.56,169.3Z" transform="translate(-29.86 -51.56)"/><path class="cls-3" d="M377.4,175.86a1.36,1.36,0,0,1-.58-.13,1.45,1.45,0,0,1-.75-1.91c6-13.58,12.43-16.9,19.28-20.42,4.34-2.23,8.82-4.54,13.41-9.87,3.13-3.62,7.5-14.82,10.39-26.62,3.46-14.11,3.14-22.17,1.39-23.68a3.21,3.21,0,0,0-2.52-.88c-1.75.19-3.93,1.83-5.85,4.39-4.71,6.22-9.9,19.2-10.67,26.71a1.45,1.45,0,0,1-2.89-.3c.84-8.07,6.2-21.49,11.25-28.15,1.42-1.9,4.33-5.15,7.85-5.53A6,6,0,0,1,422.44,91c4.33,3.74,1.56,18.25-.47,26.56-2.49,10.14-7,23.17-11,27.82-4.95,5.76-9.69,8.2-14.28,10.56-6.65,3.42-12.39,6.37-17.94,19A1.46,1.46,0,0,1,377.4,175.86Z" transform="translate(-29.86 -51.56)"/><path class="cls-3" d="M372.24,209.84a4.27,4.27,0,0,1-1.83-.5c-4.19-2.07-8.14-6-12.33-10.15-3.68-3.66-7.49-7.44-11.42-9.8l-1.56-.9c-2.24-1.25-4.36-2.43-5.11-4.56a4.2,4.2,0,0,1-.24-1.51c0-2.59,1.55-6.94,2.58-9.82l.52-1.47c.51-1.49,1.57-4.59,6.67-4.73,5.91-.11,23.11,4.52,28.42,6.66,3.26,1.31,5.1,2.79,5.79,4.68.82,2.14-.94,7.64-5.48,20-1.34,3.62-2.49,6.75-2.91,8.34s-.77,3-2,3.57A2.38,2.38,0,0,1,372.24,209.84ZM349.73,169.3h-.15c-3.07.08-3.53,1.44-4,2.76-.14.42-.33.93-.54,1.52-.9,2.52-2.41,6.75-2.41,8.84a1.67,1.67,0,0,0,.06.51c.4,1.13,2,2,3.8,3,.54.3,1.09.61,1.64.94,4.23,2.54,8.17,6.45,12,10.23,4,4,7.8,7.75,11.56,9.61l.36.15a11.24,11.24,0,0,0,.48-1.59c.46-1.73,1.64-4.92,3-8.6,2.08-5.65,6-16.16,5.49-18-.38-1-1.77-2-4.15-3h0C371.33,173.52,354.87,169.3,349.73,169.3Z" transform="translate(-29.86 -51.56)"/><path class="cls-3" d="M368.9,188.61a4.26,4.26,0,0,1-2.73-1,4.39,4.39,0,0,1-.71-6.14h0a4.4,4.4,0,0,1,6.16-.72,4.31,4.31,0,0,1,1.64,2.94,4.4,4.4,0,0,1-.95,3.26,4.32,4.32,0,0,1-2.93,1.62Zm-1.17-5.3a1.41,1.41,0,0,0-.3,1.07,1.49,1.49,0,0,0,1.64,1.32,1.41,1.41,0,0,0,1-.54,1.5,1.5,0,0,0,.34-1.12,1.46,1.46,0,0,0-.55-1A1.51,1.51,0,0,0,367.73,183.31Z" transform="translate(-29.86 -51.56)"/><path class="cls-3" d="M292.23,144.1a1.49,1.49,0,0,1-.73-.2l-.85-.5c-9.54-5.49-21.9-13.61-19.09-20.64a1.45,1.45,0,0,1,2.7,1.08c-.83,2.06.39,7,17.83,17l.87.51a1.45,1.45,0,0,1-.73,2.7Z" transform="translate(-29.86 -51.56)"/><path class="cls-3" d="M323.38,169.3a1.46,1.46,0,0,1-1.4-1.07c-1.39-5.13-5.1-18.76-9.26-24.95-2.89-4.32-12.18-12.67-20.87-17.73-7.49-4.34-13.2-5.58-16.08-3.49a4.13,4.13,0,0,0-1.51,1.74,1.45,1.45,0,1,1-2.7-1,6.86,6.86,0,0,1,2.51-3c3.92-2.84,10.57-1.69,19.24,3.33,9.17,5.34,18.69,13.94,21.82,18.62,3.92,5.84,7.22,16.86,9.65,25.81a1.45,1.45,0,0,1-1,1.78A1.58,1.58,0,0,1,323.38,169.3Z" transform="translate(-29.86 -51.56)"/><path class="cls-3" d="M295.55,175.86a1.46,1.46,0,0,1-1.33-.87c-5.56-12.64-11.31-15.59-18-19-4.59-2.36-9.33-4.8-14.29-10.56-6.6-7.65-18.79-48-11.46-54.39a6,6,0,0,1,4.72-1.56c3.52.38,6.44,3.63,7.86,5.54,5,6.6,10.38,20,11.26,28.11a1.52,1.52,0,0,1-1.44,1.54,1.38,1.38,0,0,1-1.45-1.36c-.81-7.42-6-20.39-10.68-26.55-1.92-2.57-4.11-4.21-5.86-4.4a3.19,3.19,0,0,0-2.51.88c-5,4.36,5,42.51,11.75,50.3,4.6,5.33,9.08,7.64,13.43,9.87,6.84,3.52,13.31,6.84,19.28,20.42a1.45,1.45,0,0,1-.74,1.91A1.36,1.36,0,0,1,295.55,175.86Z" transform="translate(-29.86 -51.56)"/><path class="cls-3" d="M300.7,209.84a2.39,2.39,0,0,1-1-.22c-1.26-.57-1.61-1.89-2.06-3.57s-1.61-4.84-3-8.55c-4.49-12.19-6.24-17.63-5.43-19.77.75-1.91,2.59-3.38,5.8-4.67h0c5.32-2.14,22.53-6.71,28.41-6.66,5.07.14,6.15,3.23,6.68,4.71.15.47.35,1,.57,1.66,1.06,3,2.51,7.13,2.51,9.67a4.61,4.61,0,0,1-.21,1.49c-.73,2.11-2.83,3.29-5.06,4.53-.53.3-1.07.6-1.61.93-3.94,2.36-7.75,6.14-11.44,9.8-4.18,4.16-8.13,8.08-12.32,10.15A4.31,4.31,0,0,1,300.7,209.84Zm.3-2.77h0Zm22.2-37.77c-5.13,0-21.58,4.22-27.11,6.45h0c-2.35.95-3.76,2-4.18,3-.43,1.75,3.4,12.14,5.45,17.73,1.4,3.78,2.6,7,3.06,8.8a12.83,12.83,0,0,0,.49,1.59l.34-.15c3.77-1.86,7.56-5.62,11.57-9.61,3.81-3.78,7.74-7.69,12-10.23.56-.34,1.14-.66,1.69-1,1.73-1,3.37-1.88,3.74-3a2,2,0,0,0,0-.53c0-2-1.47-6.21-2.34-8.71-.23-.65-.44-1.23-.59-1.68-.48-1.36-.94-2.67-4-2.75Zm-27.66,5.1h0Z" transform="translate(-29.86 -51.56)"/><path class="cls-3" d="M304,188.61a4.39,4.39,0,1,1,3.42-7.11h0a4.38,4.38,0,0,1,.93,3.27,4.39,4.39,0,0,1-4.35,3.84Zm0-5.87a1.47,1.47,0,0,0-.92.32,1.51,1.51,0,0,0-.23,2.1,1.48,1.48,0,0,0,2.09.22,1.44,1.44,0,0,0,.55-1,1.52,1.52,0,0,0-.32-1.12h0A1.5,1.5,0,0,0,304,182.74Z" transform="translate(-29.86 -51.56)"/><path class="cls-3" d="M292.38,95.43A1.45,1.45,0,0,1,290.93,94V70.06a1.45,1.45,0,0,1,2.9,0V94A1.45,1.45,0,0,1,292.38,95.43Z" transform="translate(-29.86 -51.56)"/><path class="cls-3" d="M367.75,108.33H305.28a1.45,1.45,0,1,1,0-2.9h62.47a1.45,1.45,0,0,1,0,2.9Z" transform="translate(-29.86 -51.56)"/><path class="cls-3" d="M380.65,95.43A1.45,1.45,0,0,1,379.2,94V70.06a1.45,1.45,0,1,1,2.9,0V94A1.45,1.45,0,0,1,380.65,95.43Z" transform="translate(-29.86 -51.56)"/><path class="cls-3" d="M367.75,58.62H305.28a1.45,1.45,0,1,1,0-2.9h62.47a1.45,1.45,0,0,1,0,2.9Z" transform="translate(-29.86 -51.56)"/><path class="cls-3" d="M380.65,71.51A14.36,14.36,0,0,1,366.3,57.17a1.45,1.45,0,0,1,1.45-1.45h12.9a1.45,1.45,0,0,1,1.45,1.45V70.06A1.45,1.45,0,0,1,380.65,71.51ZM369.29,58.62a11.47,11.47,0,0,0,9.91,9.9v-9.9Z" transform="translate(-29.86 -51.56)"/><path class="cls-3" d="M292.38,71.51a1.45,1.45,0,0,1-1.45-1.45V57.17a1.45,1.45,0,0,1,1.45-1.45h12.9a1.45,1.45,0,0,1,1.45,1.45A14.35,14.35,0,0,1,292.38,71.51Zm1.45-12.89v9.9a11.46,11.46,0,0,0,9.91-9.9Z" transform="translate(-29.86 -51.56)"/><path class="cls-3" d="M305.28,108.33h-12.7a1.64,1.64,0,0,1-1.65-1.45V94a1.45,1.45,0,0,1,1.45-1.45,14.36,14.36,0,0,1,14.35,14.35A1.45,1.45,0,0,1,305.28,108.33Zm-11.45-2.9h9.91a11.47,11.47,0,0,0-9.91-9.91Z" transform="translate(-29.86 -51.56)"/><path class="cls-3" d="M380.65,108.33h-12.9a1.45,1.45,0,0,1-1.45-1.45,14.37,14.37,0,0,1,14.35-14.35A1.45,1.45,0,0,1,382.1,94v12.9A1.45,1.45,0,0,1,380.65,108.33Zm-11.36-2.9h9.91V95.52A11.48,11.48,0,0,0,369.29,105.43Z" transform="translate(-29.86 -51.56)"/><path class="cls-3" d="M336.52,98.24A16.21,16.21,0,1,1,352.73,82,16.22,16.22,0,0,1,336.52,98.24Zm0-29.51A13.31,13.31,0,1,0,349.83,82,13.3,13.3,0,0,0,336.52,68.73Z" transform="translate(-29.86 -51.56)"/><path class="cls-3" d="M592.8,150.35A49.55,49.55,0,0,1,550,125.64a49.39,49.39,0,0,1,42.73-74.08,49.4,49.4,0,0,1,.09,98.79Zm-.09-96.12a46.73,46.73,0,1,0,40.5,23.36A46.71,46.71,0,0,0,592.71,54.23Z" transform="translate(-29.86 -51.56)"/><path class="cls-3" d="M622.05,163.62a1.34,1.34,0,0,1-1.16-.67l-10-17.26a1.34,1.34,0,0,1-.11-1.09,1.31,1.31,0,0,1,.73-.8,41.33,41.33,0,0,0,4-2,36.93,36.93,0,0,0,3.72-2.46,1.36,1.36,0,0,1,1.07-.23,1.3,1.3,0,0,1,.89.64l10,17.28a1.34,1.34,0,0,1,.13,1,1.33,1.33,0,0,1-.62.81l-8,4.59A1.35,1.35,0,0,1,622.05,163.62Zm-8.08-18,8.57,14.83,5.66-3.26-8.57-14.85c-.85.59-1.76,1.17-2.76,1.75S615,145.15,614,145.63Z" transform="translate(-29.86 -51.56)"/><path class="cls-3" d="M642,214a1.41,1.41,0,0,1-.35-.05,1.33,1.33,0,0,1-.81-.62L614,166.92a1.34,1.34,0,0,1,.49-1.82l21.75-12.54a1.34,1.34,0,0,1,1.83.49l26.78,46.38a1.34,1.34,0,0,1-.49,1.83l-21.74,12.56A1.35,1.35,0,0,1,642,214Zm-25-47.25,25.46,44.09,19.43-11.23-25.45-44.07Z" transform="translate(-29.86 -51.56)"/><path class="cls-3" d="M644.89,199.41a6.78,6.78,0,1,1,3.38-.91A6.81,6.81,0,0,1,644.89,199.41Zm0-10.88a4.18,4.18,0,0,0-2,.54,4.13,4.13,0,0,0-1.5,5.62,4.22,4.22,0,0,0,5.6,1.5,4.1,4.1,0,0,0-2.06-7.66Z" transform="translate(-29.86 -51.56)"/><path class="cls-3" d="M592.75,118.55A34.78,34.78,0,0,1,563,101.64a1.34,1.34,0,0,1,0-1.37,34.6,34.6,0,0,1,59.49,0,1.32,1.32,0,0,1,0,1.37A34.77,34.77,0,0,1,592.75,118.55Zm-27-17.59a32,32,0,0,0,54.07,0,31.92,31.92,0,0,0-54.07,0Z" transform="translate(-29.86 -51.56)"/><path class="cls-3" d="M592.75,116.36A15.42,15.42,0,1,1,608.16,101,15.43,15.43,0,0,1,592.75,116.36Zm0-28.16A12.75,12.75,0,1,0,605.5,101,12.77,12.77,0,0,0,592.75,88.2Z" transform="translate(-29.86 -51.56)"/><path class="cls-3" d="M592.75,105.18A4.23,4.23,0,1,1,597,101,4.24,4.24,0,0,1,592.75,105.18Zm0-5.79a1.56,1.56,0,1,0,1.56,1.57A1.56,1.56,0,0,0,592.75,99.39Z" transform="translate(-29.86 -51.56)"/><path class="cls-3" d="M600.21,99.37a8.24,8.24,0,0,1-6.59-13.18,1.33,1.33,0,0,1,1.25-.52,15.55,15.55,0,0,1,12,9.13,1.32,1.32,0,0,1-.16,1.34A8.16,8.16,0,0,1,600.21,99.37Zm-4.89-10.91a5.46,5.46,0,0,0-.68,2.67,5.58,5.58,0,0,0,5.57,5.57,5.49,5.49,0,0,0,3.88-1.59A12.91,12.91,0,0,0,595.32,88.46Z" transform="translate(-29.86 -51.56)"/><path class="cls-4" d="M76.47,334.87l.24.24a1.9,1.9,0,0,1,.46,1.25,2,2,0,0,1-3.31,1.42l-.06-.06L55.68,319.6l18.1-18.1.1-.09a1.93,1.93,0,0,1,1.33-.54,2,2,0,0,1,2,2,1.9,1.9,0,0,1-.48,1.27l-.21.21L61.2,319.6Z" transform="translate(-29.86 -51.56)"/><path class="cls-4" d="M94.17,304.33l-.25-.24a2,2,0,0,1,1.5-3.22,1.92,1.92,0,0,1,1.35.55l.07.06L115,319.6l-18.1,18.1-.09.1a2,2,0,0,1-1.34.53,2,2,0,0,1-2-2,1.92,1.92,0,0,1,.48-1.27l.21-.21,15.28-15.28Z" transform="translate(-29.86 -51.56)"/><path class="cls-5" d="M245.25,370.48a50.88,50.88,0,1,1,50.88-50.88A50.94,50.94,0,0,1,245.25,370.48Zm0-98.48a47.6,47.6,0,1,0,47.6,47.6A47.65,47.65,0,0,0,245.25,272Z" transform="translate(-29.86 -51.56)"/><rect class="cls-5" x="213.75" y="239.73" width="3.28" height="56.63"/><rect class="cls-5" x="187.08" y="266.4" width="56.63" height="3.28"/><line class="cls-6" x1="328.89" y1="268.04" x2="454.49" y2="268.04"/><circle class="cls-3" cx="312.45" cy="435.75" r="75.82"/><path class="cls-7" d="M384.2,461.33a33.84,33.84,0,0,1-8.36,2.38c1.34-.22,3.32-2.66,4.11-3.64a15.26,15.26,0,0,0,2.77-5.06c.08-.15.13-.33,0-.44a.5.5,0,0,0-.45,0,42.8,42.8,0,0,1-9.91,3.79.68.68,0,0,1-.69-.18,9.15,9.15,0,0,0-.86-.89,17.76,17.76,0,0,0-4.81-2.94,16.69,16.69,0,0,0-7.36-1.19,17.62,17.62,0,0,0-7,2,17.93,17.93,0,0,0-5.64,4.6,17.38,17.38,0,0,0-3.37,6.75,18.35,18.35,0,0,0-.18,7.12c.06.4,0,.45-.34.4-13.62-2-24.9-6.9-34.07-17.35-.4-.45-.61-.45-.94,0-4,6-2.06,15.67,2.95,20.41a26.42,26.42,0,0,0,2.09,1.84,17.17,17.17,0,0,1-6.57-1.84c-.4-.25-.6-.11-.64.35a10.94,10.94,0,0,0,.11,1.95,17.45,17.45,0,0,0,10.77,13.92A9.82,9.82,0,0,0,318,494a19.29,19.29,0,0,1-6.45.2c-.46-.09-.64.15-.46.6,2.83,7.73,9,10,13.54,11.34.62.11,1.23.11,1.85.25,0,.06-.08.06-.11.11-1.52,2.32-6.8,4-9.25,4.91a33.29,33.29,0,0,1-14.06,1.8c-.75-.12-.91-.11-1.12,0s0,.3.22.5c1,.63,1.93,1.19,2.93,1.74a46.71,46.71,0,0,0,9.39,3.75c16.88,4.66,35.9,1.24,48.57-11.35,10-9.89,13.44-23.53,13.44-37.19,0-.53.64-.83,1-1.11a32.64,32.64,0,0,0,6.61-6.87,2.14,2.14,0,0,0,.44-1.32v-.07C384.54,461.11,384.53,461.18,384.2,461.33Z" transform="translate(-29.86 -51.56)"/><circle class="cls-3" cx="734.06" cy="435.75" r="75.82"/><path class="cls-7" d="M787.45,458.62a5.22,5.22,0,1,0,5.22,5.22A5.22,5.22,0,0,0,787.45,458.62Z" transform="translate(-29.86 -51.56)"/><path class="cls-7" d="M764.28,465.31a21.89,21.89,0,1,0,21.9,21.89A21.92,21.92,0,0,0,764.28,465.31Zm0,35.92a14,14,0,1,1,14-14A14,14,0,0,1,764.28,501.23Z" transform="translate(-29.86 -51.56)"/><path class="cls-7" d="M781.66,531.65H746.17a26.73,26.73,0,0,1-26.7-26.7v-35.5a26.73,26.73,0,0,1,26.7-26.7h35.49a26.74,26.74,0,0,1,26.71,26.7V505A26.74,26.74,0,0,1,781.66,531.65Zm-35.49-80.53a18.36,18.36,0,0,0-18.34,18.33V505a18.36,18.36,0,0,0,18.34,18.34h35.49A18.36,18.36,0,0,0,800,505v-35.5a18.35,18.35,0,0,0-18.34-18.33Z" transform="translate(-29.86 -51.56)"/><path class="cls-3" d="M628.93,487.2a75.82,75.82,0,1,0-87.66,74.9v-53H522V487.2h19.26V470.5c0-19,11.31-29.5,28.63-29.5a116.75,116.75,0,0,1,17,1.48v18.66h-9.56C567.9,461.14,565,467,565,473V487.2h21l-3.36,21.92H565v53A75.82,75.82,0,0,0,628.93,487.2Z" transform="translate(-29.86 -51.56)"/><path class="cls-7" d="M582.63,509.12,586,487.2H565V473c0-6,2.94-11.84,12.36-11.84h9.56V442.48a116.75,116.75,0,0,0-17-1.48c-17.32,0-28.63,10.5-28.63,29.5v16.7H522v21.92h19.26v53a75.9,75.9,0,0,0,23.69,0v-53Z" transform="translate(-29.86 -51.56)"/><circle class="cls-3" cx="101.64" cy="435.19" r="75.82"/><path class="cls-7" d="M99.7,472.62h14.69V519.8H99.7Zm7.35-23.44a8.51,8.51,0,1,1-8.51,8.5,8.51,8.51,0,0,1,8.51-8.5" transform="translate(-29.86 -51.56)"/><path class="cls-7" d="M123.59,472.62h14.06v6.46h.2c2-3.72,6.74-7.62,13.88-7.62,14.85,0,17.58,9.76,17.58,22.46V519.8H154.66V496.86c0-5.47-.11-12.51-7.62-12.51s-8.8,6-8.8,12.11V519.8H123.59Z" transform="translate(-29.86 -51.56)"/><rect class="cls-3" x="262.32" y="551.64" width="152.2" height="152.2" rx="76.1"/><path class="cls-7" d="M368.28,673.06a14.35,14.35,0,1,0-14.36-14.35A14.36,14.36,0,0,0,368.28,673.06Zm0-21.61a7.27,7.27,0,1,1-7.27,7.26A7.27,7.27,0,0,1,368.28,651.45Z" transform="translate(-29.86 -51.56)"/><path class="cls-7" d="M381.33,693.44c1-1.11,2.11-2.29,3.18-3.52,9.57-11,14.42-21,14.42-29.5v-1.71a30.66,30.66,0,0,0-61.31,0v1.71c0,8.53,4.85,18.45,14.42,29.5,1.07,1.23,2.14,2.41,3.18,3.52-9.91,1.08-25,4.08-25,12.32,0,4.4,4.28,7.81,12.73,10.12,6.82,1.87,15.83,2.9,25.37,2.9s18.54-1,25.36-2.9c8.45-2.31,12.73-5.72,12.73-10.12C406.37,697.53,391.3,694.52,381.33,693.44Zm-36.62-33v-1.71a23.57,23.57,0,0,1,47.13,0v1.71c0,6.66-4.36,15.23-12.62,24.78a121.75,121.75,0,0,1-11,11.06,124,124,0,0,1-10.87-11C349.1,675.7,344.71,667.1,344.71,660.42Zm45.53,49a108.29,108.29,0,0,1-43.92,0c-6.13-1.48-8.23-3-8.86-3.68.55-.55,2.22-1.81,6.76-3.12A83,83,0,0,1,361.85,700c2.42,2.24,4,3.58,4.19,3.69l2.24,1.82,2.23-1.82c.14-.11,1.77-1.45,4.19-3.69a82.79,82.79,0,0,1,17.58,2.63c4.58,1.31,6.26,2.58,6.81,3.13C398.46,706.4,396.36,708,390.24,709.44Z" transform="translate(-29.86 -51.56)"/><rect class="cls-3" x="501.97" y="551.64" width="152.2" height="152.2" rx="76.1"/><path class="cls-7" d="M640.45,649.15H580.16a11.32,11.32,0,0,0-11.31,11.31v37.68a11.32,11.32,0,0,0,11.31,11.3h60.29a11.31,11.31,0,0,0,11.3-11.3V660.46A11.32,11.32,0,0,0,640.45,649.15Zm-1.56,7.54L613,682.61a3.77,3.77,0,0,1-5.33,0l-25.92-25.92Zm-62.5,39.88V662l17.27,17.28Zm5.32,5.34L599,684.62l3.32,3.32a11.33,11.33,0,0,0,16,0l3.31-3.32,17.29,17.29Zm62.51-5.34-17.28-17.28L644.22,662Z" transform="translate(-29.86 -51.56)"/><path class="cls-3" d="M131.78,603.2h0a76.1,76.1,0,0,0,0,152.2h0a76.1,76.1,0,1,0,0-152.2Z" transform="translate(-29.86 -51.56)"/><path class="cls-7" d="M171.17,702.13l-16.83-16.86a4.06,4.06,0,0,0-5.68,0l-6.15,6a65.34,65.34,0,0,1-23.1-23.11l5.91-6a4,4,0,0,0,0-5.7l-16.37-16.47a4,4,0,0,0-5.72,0l-8,7.94a13.66,13.66,0,0,0-2.66,15.61,122.62,122.62,0,0,0,55,55,13.66,13.66,0,0,0,15.62-2.66l8-8A4,4,0,0,0,171.17,702.13Zm-7,3.62-5.5,5.51a7.19,7.19,0,0,1-8.21,1.41,115.87,115.87,0,0,1-52-52,7.19,7.19,0,0,1,1.41-8.21l5.5-5.46a1.09,1.09,0,0,1,1.53,0l11.46,11.53a1.09,1.09,0,0,1,0,1.52l-6.69,6.77.9,2c.15.32,3.67,8.12,12.45,16.9s16.51,12.23,16.83,12.37l2,.88,6.92-6.7a1.07,1.07,0,0,1,1.51,0l11.93,12A1.07,1.07,0,0,1,164.13,705.75Z" transform="translate(-29.86 -51.56)"/><path class="cls-3" d="M891.65,671.66l-49.17-31.6c-3.13-2-6.14-2.42-8.48-1.14s-3.63,4-3.63,7.75v65.25c0,3.72,1.29,6.48,3.63,7.75a6.06,6.06,0,0,0,3,.73,10.35,10.35,0,0,0,5.53-1.87l49.17-31.6c3.1-2,4.81-4.71,4.81-7.63S894.75,673.66,891.65,671.66Zm-7.39,7.64-43.48,28V651.34Z" transform="translate(-29.86 -51.56)"/><path class="cls-3" d="M857.17,763.65a84.36,84.36,0,1,1,84.35-84.35A84.45,84.45,0,0,1,857.17,763.65Zm0-158.29A73.94,73.94,0,1,0,931.1,679.3,74,74,0,0,0,857.17,605.36Z" transform="translate(-29.86 -51.56)"/><path class="cls-3" d="M759.43,139.1v-8.16a8.5,8.5,0,0,0,.16-1,80.93,80.93,0,0,1,3.68-20,83.57,83.57,0,0,1,70.58-57.89c1.65-.18,3.3-.33,5-.5H847l5.06.51a81.28,81.28,0,0,1,30.67,9.58,83,83,0,0,1,32.41,31.54,81.51,81.51,0,0,1,10.72,32.69c.18,1.68.35,3.37.52,5.06v8.16c-.06.36-.12.72-.17,1.08-.53,4-.77,8-1.62,11.93Q917,186.48,887.4,205.59A80.28,80.28,0,0,1,851.93,218l-5,.51h-8.16a7.08,7.08,0,0,0-.9-.16,81.43,81.43,0,0,1-24.38-5.17,82.7,82.7,0,0,1-39.8-31.45,81.26,81.26,0,0,1-13.79-37.64C759.76,142.41,759.6,140.75,759.43,139.1Zm32.91,51.2c.06-.16.1-.24.12-.32s.1-.36.14-.54A42.68,42.68,0,0,1,806.16,166c7.06-6.32,15.28-10,24.86-10.1,7.88-.1,15.77-.12,23.65,0a32,32,0,0,1,8.5,1.14c16.24,4.85,25.88,16,30,32.18.09.34.17.67.26,1.07a75.05,75.05,0,1,0-101.06,0Z" transform="translate(-29.86 -51.56)"/><path class="cls-3" d="M842.85,147.53a29.26,29.26,0,1,1,29.32-29.28A29.28,29.28,0,0,1,842.85,147.53Z" transform="translate(-29.86 -51.56)"/><path class="cls-8" d="M558.69,268h64.82a3.73,3.73,0,0,1,3.72,3.72v64.82a3.73,3.73,0,0,1-3.72,3.72H558.69a3.73,3.73,0,0,1-3.72-3.72V271.7a3.73,3.73,0,0,1,3.72-3.72" transform="translate(-29.86 -51.56)"/><rect class="cls-7" x="556.93" y="234.95" width="8.62" height="35.2"/><path class="cls-9" d="M634.66,268h64.83a3.73,3.73,0,0,1,3.71,3.72v64.82a3.72,3.72,0,0,1-3.71,3.72H634.66a3.72,3.72,0,0,1-3.71-3.72V271.7a3.73,3.73,0,0,1,3.71-3.72" transform="translate(-29.86 -51.56)"/><path class="cls-7" d="M647.9,321.71h8.66l1.09-15.86c0-.67.07-1.35.08-2s0-1.33,0-1.92,0-1-.05-1.4,0-.54,0-.55h.09s.08.21.2.61l.49,1.52c.21.6.42,1.25.64,1.93s.44,1.29.64,1.84l3.7,10.2h7.38l3.69-10.2c.21-.55.42-1.18.65-1.84s.44-1.33.63-1.93.37-1.12.5-1.52.19-.59.19-.61h.1s0,.19,0,.55,0,.82,0,1.4,0,1.22,0,1.92,0,1.36.08,2l1.09,15.86h8.61l-2.85-35.2H674l-5.12,14.86c-.19.58-.4,1.2-.61,1.87s-.4,1.3-.57,1.89-.32,1.09-.43,1.47-.16.57-.16.59h-.1s-.06-.22-.17-.59-.25-.87-.42-1.47l-.57-1.89c-.21-.67-.42-1.29-.61-1.87l-5.12-14.86H650.8Z" transform="translate(-29.86 -51.56)"/><path class="cls-9" d="M710.64,268h64.82a3.74,3.74,0,0,1,3.72,3.72v64.82a3.73,3.73,0,0,1-3.72,3.72H710.64a3.73,3.73,0,0,1-3.72-3.72V271.7a3.74,3.74,0,0,1,3.72-3.72" transform="translate(-29.86 -51.56)"/><path class="cls-7" d="M750.68,321.71h8.86l-12-35.2h-9.06l-12,35.2h8.87l2.11-7.38h11Zm-7.58-27.17.09.41c.06.27.13.63.23,1.08s.2.93.33,1.47.25,1.07.38,1.61.26,1,.4,1.48l2,6.84h-6.94l2-6.84c.13-.45.26-.95.39-1.48s.27-1.07.39-1.61l.33-1.47c.1-.45.18-.81.23-1.08l.09-.41Z" transform="translate(-29.86 -51.56)"/><path class="cls-9" d="M786.61,268h64.82a3.74,3.74,0,0,1,3.72,3.72v64.82a3.73,3.73,0,0,1-3.72,3.72H786.61a3.72,3.72,0,0,1-3.71-3.72V271.7a3.73,3.73,0,0,1,3.71-3.72" transform="translate(-29.86 -51.56)"/><path class="cls-7" d="M803.19,321.71h9.55l4-7.38c.42-.76.79-1.46,1.11-2.13s.58-1.2.77-1.62L819,310h.1l.29.63c.18.42.44,1,.77,1.62s.69,1.37,1.1,2.13l4,7.38h9.6l-10.73-17.48,10.78-17.72h-9.8l-3.89,7.23-.85,1.67c-.26.53-.49,1-.69,1.45s-.36.78-.46,1-.16.39-.16.4H819l-.17-.4-.47-1c-.19-.44-.43-.92-.69-1.45s-.54-1.09-.84-1.65l-3.84-7.23h-9.79l10.72,17.72Z" transform="translate(-29.86 -51.56)"/><path class="cls-10" d="M555,361.24h1.47v-10.4H555Zm14.37,0h1.45v-6.73a4.35,4.35,0,0,0,0-.5c0-.17,0-.33,0-.5s0-.28,0-.37a1,1,0,0,1,0-.16h0a1.78,1.78,0,0,1,.08.16l.21.38.28.5c.1.17.2.33.31.49l4.63,6.73h1.42v-10.4H576.2v6.76c0,.15,0,.31,0,.48s0,.33,0,.49,0,.29,0,.38,0,.16,0,.16h0a1,1,0,0,1-.08-.16c-.05-.1-.12-.22-.22-.38s-.18-.32-.28-.49-.2-.33-.29-.48l-4.62-6.76h-1.44ZM589.87,356a6,6,0,0,0,.26,1.78,5.3,5.3,0,0,0,.73,1.49,4.77,4.77,0,0,0,1.11,1.13,4.82,4.82,0,0,0,1.4.74,5,5,0,0,0,1.6.25,4.78,4.78,0,0,0,1.12-.13,3.94,3.94,0,0,0,.9-.32,3.5,3.5,0,0,0,.65-.37,2.56,2.56,0,0,0,.39-.32l.14-.13h0v.06c0,.05,0,.1,0,.17s0,.14,0,.22v.64h1.29V356h-3v1.26h1.69v1.5s0,.05-.13.14-.22.19-.39.33a5.07,5.07,0,0,1-.61.38,4.85,4.85,0,0,1-.82.31,3.5,3.5,0,0,1-1,.14,3.91,3.91,0,0,1-1.51-.29,3.8,3.8,0,0,1-1.22-.84,4.06,4.06,0,0,1-.8-1.29,4.87,4.87,0,0,1-.3-1.67,4.44,4.44,0,0,1,.28-1.55,3.55,3.55,0,0,1,2-2.13,4.11,4.11,0,0,1,1.65-.31,5.08,5.08,0,0,1,1,.1,4.53,4.53,0,0,1,.81.26,3.88,3.88,0,0,1,.61.29l.39.25.14.11.73-1.09-.15-.13a4.66,4.66,0,0,0-.46-.3,4.6,4.6,0,0,0-.77-.38,5.86,5.86,0,0,0-1.06-.31,6.72,6.72,0,0,0-1.35-.13,5.37,5.37,0,0,0-1.71.27,5,5,0,0,0-1.46.75,5.13,5.13,0,0,0-1.13,1.15,5.24,5.24,0,0,0-.73,1.48,5.37,5.37,0,0,0-.26,1.71m22,5.21h6.28V360h-4.83v-3.34H617v-1.27h-3.73v-3.26h4.58v-1.27h-6Zm18.51,0h1.46V354.5a4.27,4.27,0,0,0,0-.49c0-.17,0-.33,0-.5s0-.28,0-.37a1,1,0,0,1,0-.16h0s0,0,.09.16l.2.38.29.5.29.48,4.64,6.74h1.43v-10.4h-1.45v6.76c0,.15,0,.31,0,.48l0,.49c0,.16,0,.29,0,.38s0,.16,0,.16h0l-.08-.16-.21-.38-.28-.49-.3-.48-4.62-6.76h-1.45Zm21.23,0H653v-10.4h-1.45Zm14.36,0h6.28V360h-4.83v-3.34h3.73v-1.27h-3.73v-3.26H672v-1.27h-6Zm18.52,0h1.45V357.1h2.23l2.19,4.14H692l-2.2-4c-.09-.17-.18-.29-.23-.37l-.08-.11v0a2.49,2.49,0,0,0,1-.59,3,3,0,0,0,.65-1,3.53,3.53,0,0,0,0-2.48,2.63,2.63,0,0,0-.61-1,2.71,2.71,0,0,0-.92-.6l-.44-.13-.61-.08c-.24,0-.54,0-.89,0h-3.18Zm1.45-5.4v-3.73h1.68c.26,0,.49,0,.67,0a2.55,2.55,0,0,1,.45.09,1.43,1.43,0,0,1,.31.12,1.52,1.52,0,0,1,.61.62,2.16,2.16,0,0,1,.21,1,2.23,2.23,0,0,1-.22,1,1.54,1.54,0,0,1-.64.65,2.12,2.12,0,0,1-1,.23Zm18.06,5.4h1.45v-10.4H704Zm.1-11.11h1.19l1.42-1.87h-1.53Zm20.46,11.11H726l-3.74-10.4h-1.53L717,361.24h1.5l1-3h3.91Zm-3-9a.64.64,0,0,1,0,.15c0,.1.06.23.1.38l.12.48.14.45,1.15,3.31h-3.15l1.17-3.31c0-.13.09-.28.13-.45s.1-.32.14-.48.07-.28.1-.38l0-.15Zm27.14,9h1.45l.5-6.55,0-.51v-1.05h0l0,.16.15.41a3.91,3.91,0,0,0,.18.51q.09.26.18.48l2.06,4.68h1.3l2.07-4.68c.07-.15.13-.31.2-.48s.12-.34.18-.5l.13-.39a.87.87,0,0,0,0-.16h0v.15c0,.1,0,.22,0,.38s0,.31,0,.5,0,.33,0,.5l.51,6.55h1.45l-.84-10.4h-1.53l-2.39,5.64q-.09.21-.18.45c-.06.16-.11.32-.17.46l-.12.34c0,.1,0,.13,0,.14h0l0-.14c0-.09-.07-.2-.13-.34a3.78,3.78,0,0,0-.17-.46,4.7,4.7,0,0,0-.17-.45L751,350.84h-1.52Zm29.35,0h1.52l-3.75-10.4h-1.53l-3.74,10.4H772l1-3H777Zm-3-9a.64.64,0,0,1,0,.15c0,.1.06.23.09.38s.09.32.13.48l.14.45,1.15,3.31h-3.15l1.16-3.31.14-.45c0-.16.09-.32.13-.48s.08-.28.1-.38l0-.15Zm-.66-2.15h1.19l1.42-1.87h-1.54Zm15.67,11.11h1.63l1.9-3.19q.17-.29.3-.57c.09-.18.17-.33.22-.45l.09-.18h0l.1.18c.06.12.14.27.24.44l.32.58,1.89,3.19h1.65l-3.29-5.35,3.08-5.05h-1.67l-1.64,2.82a3.75,3.75,0,0,0-.24.44l-.21.39c-.06.12-.1.22-.13.29a.52.52,0,0,1-.06.12h0a.49.49,0,0,0-.06-.12l-.14-.3-.22-.38c-.07-.16-.16-.3-.23-.44L792,350.84h-1.68l3.08,5.05Zm20.18,0h1.46v-10.4h-1.46Zm14,0h1.46l.5-6.55c0-.17,0-.33,0-.51s0-.34,0-.5v-.39c0-.1,0-.16,0-.16h0l.07.16c0,.11.07.25.13.41s.12.33.18.51.13.33.18.48l2.07,4.68h1.3l2.07-4.68c.06-.15.13-.31.19-.48s.12-.34.18-.5.1-.29.13-.39l.06-.16h0s0,0,0,.15v.88c0,.17,0,.33,0,.5l.52,6.55h1.44l-.83-10.4h-1.54l-2.39,5.64-.17.45-.17.46-.12.34a.77.77,0,0,1-.06.14h0l0-.14c0-.09-.07-.2-.13-.34s-.1-.3-.16-.46-.13-.31-.19-.45l-2.38-5.64h-1.53Zm29.35,0h1.52l-3.75-10.4h-1.52l-3.74,10.4h1.49l1-3h3.92Zm-3-9,0,.15c0,.1.06.23.1.38s.09.32.12.48l.14.45,1.15,3.31h-3.15l1.16-3.31c0-.13.09-.28.15-.45s.09-.32.13-.48.07-.28.1-.38a.69.69,0,0,0,0-.15Z" transform="translate(-29.86 -51.56)"/><rect class="cls-1" y="2.67" width="134.59" height="152.84"/></g></svg>